<?xml version="1.0" encoding="UTF-8" standalone="no"?>
<svg
   xmlns:dc="http://purl.org/dc/elements/1.1/"
   xmlns:cc="http://creativecommons.org/ns#"
   xmlns:rdf="http://www.w3.org/1999/02/22-rdf-syntax-ns#"
   xmlns:svg="http://www.w3.org/2000/svg"
   xmlns="http://www.w3.org/2000/svg"
   id="svg8"
   version="1.1"
   viewBox="0 0 109.04082 102.74046"
   height="102.74046mm"
   width="109.04082mm">
  <defs
     id="defs2">
    <clipPath
       id="clipPath885"
       clipPathUnits="userSpaceOnUse">
      <rect
         y="246.4256"
         x="130.12361"
         height="15.572045"
         width="24.757151"
         id="rect887"
         style="opacity:1;fill:#2b0000;fill-opacity:1;fill-rule:evenodd;stroke:none;stroke-width:0.17125951;stroke-miterlimit:4;stroke-dasharray:none;stroke-opacity:1" />
    </clipPath>
    <clipPath
       id="clipPath885-5"
       clipPathUnits="userSpaceOnUse">
      <rect
         y="246.4256"
         x="130.12361"
         height="15.572045"
         width="24.757151"
         id="rect887-9"
         style="opacity:1;fill:#2b0000;fill-opacity:1;fill-rule:evenodd;stroke:none;stroke-width:0.17125951;stroke-miterlimit:4;stroke-dasharray:none;stroke-opacity:1" />
    </clipPath>
  </defs>
  <metadata
     id="metadata5">
    <rdf:RDF>
      <cc:Work
         rdf:about="">
        <dc:format>image/svg+xml</dc:format>
        <dc:type
           rdf:resource="http://purl.org/dc/dcmitype/StillImage" />
        <dc:title></dc:title>
      </cc:Work>
    </rdf:RDF>
  </metadata>
  <g
     transform="translate(-17.847813,-70.447044)"
     style="display:none"
     id="layer1">
    <flowRoot
       transform="matrix(1.0839822,0,0,1.7488925,-114.38386,-331.31556)"
       style="font-style:normal;font-variant:normal;font-weight:normal;font-stretch:normal;font-size:40.00065613px;line-height:1.25;font-family:'Noto Sans';-inkscape-font-specification:'Noto Sans, Normal';font-variant-ligatures:normal;font-variant-caps:all-small-caps;font-variant-numeric:normal;font-feature-settings:normal;text-align:start;letter-spacing:0px;word-spacing:0px;writing-mode:lr-tb;text-anchor:start;fill:#000000;fill-opacity:1;stroke:none"
       id="flowRoot815"
       xml:space="preserve"><flowRegion
         style="font-style:normal;font-variant:normal;font-weight:normal;font-stretch:normal;font-size:40.00065613px;font-family:'Noto Sans';-inkscape-font-specification:'Noto Sans, Normal';font-variant-ligatures:normal;font-variant-caps:all-small-caps;font-variant-numeric:normal;font-feature-settings:normal;text-align:start;writing-mode:lr-tb;text-anchor:start"
         id="flowRegion817"><rect
           style="font-style:normal;font-variant:normal;font-weight:normal;font-stretch:normal;font-size:40.00065613px;font-family:'Noto Sans';-inkscape-font-specification:'Noto Sans, Normal';font-variant-ligatures:normal;font-variant-caps:all-small-caps;font-variant-numeric:normal;font-feature-settings:normal;text-align:start;writing-mode:lr-tb;text-anchor:start"
           y="215.37683"
           x="135.71428"
           height="267.14285"
           width="542.85712"
           id="rect819" /></flowRegion><flowPara
         id="flowPara821">PER</flowPara></flowRoot>    <flowRoot
       transform="matrix(1.0839822,0,0,2.2088193,-38.739948,-434.40783)"
       style="font-style:normal;font-variant:normal;font-weight:normal;font-stretch:normal;font-size:40px;line-height:1.25;font-family:'Noto Sans';-inkscape-font-specification:'Noto Sans, Normal';font-variant-ligatures:normal;font-variant-caps:normal;font-variant-numeric:normal;font-feature-settings:normal;text-align:start;letter-spacing:0px;word-spacing:0px;writing-mode:lr-tb;text-anchor:start;fill:#000000;fill-opacity:1;stroke:none"
       id="flowRoot815-1"
       xml:space="preserve"><flowRegion
         style="font-style:normal;font-variant:normal;font-weight:normal;font-stretch:normal;font-size:40px;font-family:'Noto Sans';-inkscape-font-specification:'Noto Sans, Normal';font-variant-ligatures:normal;font-variant-caps:normal;font-variant-numeric:normal;font-feature-settings:normal;text-align:start;writing-mode:lr-tb;text-anchor:start"
         id="flowRegion817-7"><rect
           style="font-style:normal;font-variant:normal;font-weight:normal;font-stretch:normal;font-size:40px;font-family:'Noto Sans';-inkscape-font-specification:'Noto Sans, Normal';font-variant-ligatures:normal;font-variant-caps:normal;font-variant-numeric:normal;font-feature-settings:normal;text-align:start;writing-mode:lr-tb;text-anchor:start"
           y="215.37683"
           x="135.71428"
           height="267.14285"
           width="542.85712"
           id="rect819-8" /></flowRegion><flowPara
         id="flowPara821-5">J</flowPara></flowRoot>    <flowRoot
       transform="scale(0.26458333)"
       style="font-style:normal;font-weight:normal;font-size:40px;line-height:1.25;font-family:sans-serif;letter-spacing:0px;word-spacing:0px;fill:#000000;fill-opacity:1;stroke:none"
       id="flowRoot847"
       xml:space="preserve"><flowRegion
         id="flowRegion849"><rect
           y="625.37683"
           x="462.85715"
           height="132.85715"
           width="60"
           id="rect851" /></flowRegion><flowPara
         id="flowPara853" /></flowRoot>  </g>
  <g
     transform="translate(-17.847813,-70.447044)"
     id="layer4" />
  <g
     transform="translate(-17.847813,-70.447044)"
     style="display:inline"
     id="layer2">
    <g
       id="flowRoot815-4"
       style="font-style:normal;font-variant:normal;font-weight:normal;font-stretch:normal;font-size:40.00065613px;line-height:1.25;font-family:'Noto Sans';-inkscape-font-specification:'Noto Sans, Normal';font-variant-ligatures:normal;font-variant-caps:all-small-caps;font-variant-numeric:normal;font-feature-settings:normal;text-align:start;letter-spacing:0px;word-spacing:0px;writing-mode:lr-tb;text-anchor:start;fill:#000000;fill-opacity:1;stroke:none"
       transform="matrix(1.0839822,0,0,1.0444833,-113.53607,-159.27615)"
       aria-label="perj">
      <path
         id="path980"
         style=""
         d="m 149.31507,229.9322 q 3.96006,0 6.3601,2.76004 2.44004,2.76005 2.44004,8.32014 0,5.48009 -2.44004,8.32014 -2.40004,2.84004 -6.4001,2.84004 -2.48004,0 -4.12007,-0.92001 -1.60003,-0.92002 -2.52004,-2.20004 h -0.24001 q 0.04,0.68001 0.12001,1.72003 0.12,1.04002 0.12,1.80003 v 8.80014 h -3.52006 v -31.0405 h 2.88005 l 0.48,2.92004 h 0.16001 q 0.96001,-1.40002 2.52004,-2.36004 1.56002,-0.96001 4.16007,-0.96001 z m -0.64001,2.96005 q -3.28006,0 -4.64008,1.84003 -1.36002,1.84003 -1.40002,5.60009 v 0.68001 q 0,3.96007 1.28002,6.1201 1.32002,2.12004 4.84008,2.12004 1.92003,0 3.20005,-1.04002 1.28002,-1.08002 1.88003,-2.96005 0.64001,-1.88003 0.64001,-4.28007 0,-3.68006 -1.44002,-5.8801 -1.40003,-2.20003 -4.36007,-2.20003 z" />
      <path
         id="path982"
         style=""
         d="m 172.00481,229.9322 q 2.72005,0 4.72008,1.20002 2.00003,1.20002 3.04005,3.40005 1.08002,2.16004 1.08002,5.08009 v 2.12003 h -14.68024 q 0.08,3.64006 1.84003,5.56009 1.80003,1.88003 5.00008,1.88003 2.04003,0 3.60006,-0.36 1.60003,-0.40001 3.28005,-1.12002 v 3.08005 q -1.64002,0.72001 -3.24005,1.04002 -1.60003,0.36 -3.80006,0.36 -3.08005,0 -5.40009,-1.24002 -2.32004,-1.24002 -3.64006,-3.68006 -1.28002,-2.44004 -1.28002,-6.0401 0,-3.52005 1.16002,-6.04009 1.20002,-2.52005 3.32005,-3.88007 2.16004,-1.36002 5.00008,-1.36002 z m -0.04,2.88005 q -2.52004,0 -4.00006,1.64002 -1.44003,1.60003 -1.72003,4.48008 h 10.92018 q -0.04,-2.72005 -1.28002,-4.40008 -1.24002,-1.72002 -3.92007,-1.72002 z" />
      <path
         id="path984"
         style=""
         d="m 196.30334,229.9322 q 0.60001,0 1.28002,0.08 0.68001,0.04 1.24002,0.16 l -0.44001,3.24006 q -0.52001,-0.12001 -1.16002,-0.20001 -0.64001,-0.08 -1.16002,-0.08 -1.64002,0 -3.08005,0.92002 -1.44002,0.88001 -2.32003,2.52004 -0.84002,1.60002 -0.84002,3.76006 v 11.44019 h -3.52006 v -21.44035 h 2.88005 l 0.40001,3.92006 h 0.16 q 1.00002,-1.76003 2.64004,-3.04005 1.68003,-1.28002 3.92007,-1.28002 z" />
      <path
         id="path986"
         style=""
         d="m 202.50782,224.53211 q 0,-1.16002 0.6,-1.68003 0.60001,-0.56001 1.48003,-0.56001 0.80001,0 1.40002,0.56001 0.64001,0.52001 0.64001,1.68003 0,1.16002 -0.64001,1.72003 -0.60001,0.52001 -1.40002,0.52001 -0.88002,0 -1.48003,-0.52001 -0.6,-0.56001 -0.6,-1.72003 z m -2.24004,36.8406 q -1.04002,0 -1.80003,-0.16 -0.76001,-0.12 -1.28002,-0.32 v -2.84005 q 0.60001,0.2 1.24002,0.28001 0.64001,0.12 1.40002,0.12 1.28002,0 2.12004,-0.72001 0.84001,-0.68002 0.84001,-2.64005 v -24.7604 h 3.52006 v 24.6404 q 0,3.00005 -1.44003,4.68008 -1.44002,1.72002 -4.60007,1.72002 z" />
    </g>
    <path
       id="path1049-0-9"
       d="m 92.598793,106.04605 c -0.256413,17.69962 -0.256413,17.69962 -0.256413,17.69962 l 8.46175,5.19446 0.25642,6.34878 v 0 0"
       style="fill:none;stroke:#000000;stroke-width:2.85877275;stroke-linecap:butt;stroke-linejoin:miter;stroke-miterlimit:4;stroke-dasharray:none;stroke-opacity:1" />
    <path
       id="path1285-0"
       d="m 113.76546,106.04605 c 0,17.02071 0,17.02071 0,17.02071 l 9.6217,4.79675 -0.26727,8.81982 v 0 0"
       style="display:inline;fill:none;stroke:#000000;stroke-width:2.85863709;stroke-linecap:butt;stroke-linejoin:miter;stroke-miterlimit:4;stroke-dasharray:none;stroke-opacity:1" />
    <path
       id="path1285-1"
       d="m 82.663777,106.10255 c 0,14.17655 0,14.17655 0,14.17655 l -9.644151,3.9952 0.267893,7.34602 v 0 0"
       style="display:inline;fill:none;stroke:#000000;stroke-width:2.61192822;stroke-linecap:butt;stroke-linejoin:miter;stroke-miterlimit:4;stroke-dasharray:none;stroke-opacity:1" />
    <path
       id="path1285-4-2"
       d="m 82.280043,120.9108 c 0,25.27509 0,25.27509 0,25.27509 l 8.995833,7.12297 -0.249886,13.09711 v 0 0"
       style="display:inline;fill:none;stroke:#000000;stroke-width:3.36830354;stroke-linecap:butt;stroke-linejoin:miter;stroke-miterlimit:4;stroke-dasharray:none;stroke-opacity:1" />
    <path
       id="path1340"
       d="m 60.848793,106.04605 c -0.267269,23.42583 0,23.42583 0,23.42583 l 0.534541,10.63021 6.949006,7.87422 -0.267269,9.64594 v 0"
       style="fill:none;stroke:#000000;stroke-width:3.22433734;stroke-linecap:butt;stroke-linejoin:miter;stroke-miterlimit:4;stroke-dasharray:none;stroke-opacity:1" />
    <path
       id="path1285-4"
       d="m 44.973793,106.04605 c 0,17.02071 0,17.02071 0,17.02071 l 9.621702,4.79675 -0.267269,8.81982 v 0 0"
       style="display:inline;fill:none;stroke:#000000;stroke-width:2.85863709;stroke-linecap:butt;stroke-linejoin:miter;stroke-miterlimit:4;stroke-dasharray:none;stroke-opacity:1" />
    <path
       id="path1285"
       d="m 39.158334,113.64375 c 0,17.02072 0,17.02072 0,17.02072 l -17.462501,4.79674 0.485068,8.81983 v 0 0"
       style="fill:none;stroke:#000000;stroke-width:3.85111284;stroke-linecap:butt;stroke-linejoin:miter;stroke-miterlimit:4;stroke-dasharray:none;stroke-opacity:1" />
    <path
       id="path5147"
       d="m 113.76546,122.8957 v 6.12714 l -2.64583,1.53178 v 13.78608 0 0"
       style="fill:none;stroke:#000000;stroke-width:2.85863709;stroke-linecap:butt;stroke-linejoin:miter;stroke-miterlimit:4;stroke-dasharray:none;stroke-opacity:1" />
    <path
       id="path5151"
       d="m 39.422918,131.37084 c 0,9.19072 0,9.19072 0,9.19072 l 6.35,6.12714 v 4.59536"
       style="fill:none;stroke:#000000;stroke-width:3.13148022;stroke-linecap:butt;stroke-linejoin:miter;stroke-miterlimit:4;stroke-dasharray:none;stroke-opacity:1" />
    <ellipse
       transform="scale(-1,1)"
       ry="2.9500859"
       rx="2.9806659"
       cy="74.400162"
       cx="-108.69303"
       id="path1082-7-5-3-8"
       style="display:inline;opacity:1;fill:#ff0000;fill-opacity:1;fill-rule:evenodd;stroke:#000000;stroke-width:2.00606418;stroke-miterlimit:4;stroke-dasharray:none;stroke-opacity:1" />
    <ellipse
       transform="scale(-1,1)"
       ry="2.9500859"
       rx="2.9806659"
       cy="139.75224"
       cx="-122.90494"
       id="path1082-7-5-3-8-3"
       style="display:inline;opacity:1;fill:#ccff00;fill-opacity:1;fill-rule:evenodd;stroke:#000000;stroke-width:2.00606418;stroke-miterlimit:4;stroke-dasharray:none;stroke-opacity:1" />
    <ellipse
       transform="scale(-1,1)"
       ry="2.9500859"
       rx="2.9806659"
       cy="147.29288"
       cx="-111.18768"
       id="path1082-7-5-3-8-6"
       style="display:inline;opacity:1;fill:#ff6600;fill-opacity:1;fill-rule:evenodd;stroke:#000000;stroke-width:2.00606418;stroke-miterlimit:4;stroke-dasharray:none;stroke-opacity:1" />
    <ellipse
       transform="scale(-1,1)"
       ry="2.9500859"
       rx="2.9806659"
       cy="138.24034"
       cx="-100.79332"
       id="path1082-7-5-3-8-7"
       style="display:inline;opacity:1;fill:#c800c8;fill-opacity:1;fill-rule:evenodd;stroke:#000000;stroke-width:2.00606418;stroke-miterlimit:4;stroke-dasharray:none;stroke-opacity:1" />
    <ellipse
       transform="scale(-1,1)"
       ry="2.9500859"
       rx="2.9806659"
       cy="169.23439"
       cx="-90.587967"
       id="path1082-7-5-3-8-5"
       style="display:inline;opacity:1;fill:#bb0000;fill-opacity:1;fill-rule:evenodd;stroke:#000000;stroke-width:2.00606418;stroke-miterlimit:4;stroke-dasharray:none;stroke-opacity:1" />
    <ellipse
       transform="scale(-1,1)"
       ry="2.9500859"
       rx="2.9806659"
       cy="135.04645"
       cx="-72.936485"
       id="path1082-7-5-3-8-35"
       style="display:inline;opacity:1;fill:#2600ff;fill-opacity:1;fill-rule:evenodd;stroke:#000000;stroke-width:2.00606418;stroke-miterlimit:4;stroke-dasharray:none;stroke-opacity:1" />
    <ellipse
       transform="scale(-1,1)"
       ry="2.9500859"
       rx="2.9806659"
       cy="160.86221"
       cx="-67.701508"
       id="path1082-7-5-3-8-62"
       style="display:inline;opacity:1;fill:#fff900;fill-opacity:1;fill-rule:evenodd;stroke:#000000;stroke-width:2.00606418;stroke-miterlimit:4;stroke-dasharray:none;stroke-opacity:1" />
    <ellipse
       transform="scale(-1,1)"
       ry="2.9500859"
       rx="2.9806659"
       cy="140.03572"
       cx="-53.999878"
       id="path1082-7-5-3-8-9"
       style="display:inline;opacity:1;fill:#038a00;fill-opacity:1;fill-rule:evenodd;stroke:#000000;stroke-width:2.00606418;stroke-miterlimit:4;stroke-dasharray:none;stroke-opacity:1" />
    <ellipse
       transform="scale(-1,1)"
       ry="2.9500859"
       rx="2.9806659"
       cy="153.86966"
       cx="-45.7033"
       id="path1082-7-5-3-8-1"
       style="display:inline;opacity:1;fill:#26beff;fill-opacity:1;fill-rule:evenodd;stroke:#000000;stroke-width:2.00606418;stroke-miterlimit:4;stroke-dasharray:none;stroke-opacity:1" />
    <ellipse
       transform="scale(-1,1)"
       ry="2.9500859"
       rx="2.9806659"
       cy="147.33336"
       cx="-21.831511"
       id="path1082-7-5-3-8-2"
       style="display:inline;opacity:1;fill:#ffa428;fill-opacity:1;fill-rule:evenodd;stroke:#000000;stroke-width:2.00606418;stroke-miterlimit:4;stroke-dasharray:none;stroke-opacity:1" />
  </g>
  <g
     transform="translate(-17.847813,-70.447044)"
     style="display:inline"
     id="layer3" />
</svg>
