<?xml version="1.0" encoding="UTF-8" standalone="no"?>
<svg
   xmlns:dc="http://purl.org/dc/elements/1.1/"
   xmlns:cc="http://creativecommons.org/ns#"
   xmlns:rdf="http://www.w3.org/1999/02/22-rdf-syntax-ns#"
   xmlns:svg="http://www.w3.org/2000/svg"
   xmlns="http://www.w3.org/2000/svg"
   id="svg8"
   version="1.1"
   viewBox="0 0 106.33228 137.1129"
   height="137.1129mm"
   width="106.33228mm">
  <defs
     id="defs2">
    <clipPath
       id="clipPath885"
       clipPathUnits="userSpaceOnUse">
      <rect
         y="246.4256"
         x="130.12361"
         height="15.572045"
         width="24.757151"
         id="rect887"
         style="opacity:1;fill:#2b0000;fill-opacity:1;fill-rule:evenodd;stroke:none;stroke-width:0.17125951;stroke-miterlimit:4;stroke-dasharray:none;stroke-opacity:1" />
    </clipPath>
    <clipPath
       id="clipPath885-5"
       clipPathUnits="userSpaceOnUse">
      <rect
         y="246.4256"
         x="130.12361"
         height="15.572045"
         width="24.757151"
         id="rect887-9"
         style="opacity:1;fill:#2b0000;fill-opacity:1;fill-rule:evenodd;stroke:none;stroke-width:0.17125951;stroke-miterlimit:4;stroke-dasharray:none;stroke-opacity:1" />
    </clipPath>
  </defs>
  <metadata
     id="metadata5">
    <rdf:RDF>
      <cc:Work
         rdf:about="">
        <dc:format>image/svg+xml</dc:format>
        <dc:type
           rdf:resource="http://purl.org/dc/dcmitype/StillImage" />
        <dc:title></dc:title>
      </cc:Work>
    </rdf:RDF>
  </metadata>
  <g
     transform="translate(-21.296042,-47.659092)"
     style="display:none"
     id="layer1">
    <flowRoot
       transform="matrix(1.0839822,0,0,1.7488925,-114.38386,-331.31556)"
       style="font-style:normal;font-variant:normal;font-weight:normal;font-stretch:normal;font-size:40.00065613px;line-height:1.25;font-family:'Noto Sans';-inkscape-font-specification:'Noto Sans, Normal';font-variant-ligatures:normal;font-variant-caps:all-small-caps;font-variant-numeric:normal;font-feature-settings:normal;text-align:start;letter-spacing:0px;word-spacing:0px;writing-mode:lr-tb;text-anchor:start;fill:#000000;fill-opacity:1;stroke:none"
       id="flowRoot815"
       xml:space="preserve"><flowRegion
         style="font-style:normal;font-variant:normal;font-weight:normal;font-stretch:normal;font-size:40.00065613px;font-family:'Noto Sans';-inkscape-font-specification:'Noto Sans, Normal';font-variant-ligatures:normal;font-variant-caps:all-small-caps;font-variant-numeric:normal;font-feature-settings:normal;text-align:start;writing-mode:lr-tb;text-anchor:start"
         id="flowRegion817"><rect
           style="font-style:normal;font-variant:normal;font-weight:normal;font-stretch:normal;font-size:40.00065613px;font-family:'Noto Sans';-inkscape-font-specification:'Noto Sans, Normal';font-variant-ligatures:normal;font-variant-caps:all-small-caps;font-variant-numeric:normal;font-feature-settings:normal;text-align:start;writing-mode:lr-tb;text-anchor:start"
           y="215.37683"
           x="135.71428"
           height="267.14285"
           width="542.85712"
           id="rect819" /></flowRegion><flowPara
         id="flowPara821">PER</flowPara></flowRoot>    <flowRoot
       transform="matrix(1.0839822,0,0,2.2088193,-38.739948,-434.40783)"
       style="font-style:normal;font-variant:normal;font-weight:normal;font-stretch:normal;font-size:40px;line-height:1.25;font-family:'Noto Sans';-inkscape-font-specification:'Noto Sans, Normal';font-variant-ligatures:normal;font-variant-caps:normal;font-variant-numeric:normal;font-feature-settings:normal;text-align:start;letter-spacing:0px;word-spacing:0px;writing-mode:lr-tb;text-anchor:start;fill:#000000;fill-opacity:1;stroke:none"
       id="flowRoot815-1"
       xml:space="preserve"><flowRegion
         style="font-style:normal;font-variant:normal;font-weight:normal;font-stretch:normal;font-size:40px;font-family:'Noto Sans';-inkscape-font-specification:'Noto Sans, Normal';font-variant-ligatures:normal;font-variant-caps:normal;font-variant-numeric:normal;font-feature-settings:normal;text-align:start;writing-mode:lr-tb;text-anchor:start"
         id="flowRegion817-7"><rect
           style="font-style:normal;font-variant:normal;font-weight:normal;font-stretch:normal;font-size:40px;font-family:'Noto Sans';-inkscape-font-specification:'Noto Sans, Normal';font-variant-ligatures:normal;font-variant-caps:normal;font-variant-numeric:normal;font-feature-settings:normal;text-align:start;writing-mode:lr-tb;text-anchor:start"
           y="215.37683"
           x="135.71428"
           height="267.14285"
           width="542.85712"
           id="rect819-8" /></flowRegion><flowPara
         id="flowPara821-5">J</flowPara></flowRoot>    <flowRoot
       transform="scale(0.26458333)"
       style="font-style:normal;font-weight:normal;font-size:40px;line-height:1.25;font-family:sans-serif;letter-spacing:0px;word-spacing:0px;fill:#000000;fill-opacity:1;stroke:none"
       id="flowRoot847"
       xml:space="preserve"><flowRegion
         id="flowRegion849"><rect
           y="625.37683"
           x="462.85715"
           height="132.85715"
           width="60"
           id="rect851" /></flowRegion><flowPara
         id="flowPara853" /></flowRoot>  </g>
  <g
     transform="translate(-21.296042,-47.659092)"
     id="layer4" />
  <g
     transform="translate(-21.296042,-47.659092)"
     style="display:inline"
     id="layer2">
    <g
       id="flowRoot815-4"
       style="font-style:normal;font-variant:normal;font-weight:normal;font-stretch:normal;font-size:40.00065613px;line-height:1.25;font-family:'Noto Sans';-inkscape-font-specification:'Noto Sans, Normal';font-variant-ligatures:normal;font-variant-caps:all-small-caps;font-variant-numeric:normal;font-feature-settings:normal;text-align:start;letter-spacing:0px;word-spacing:0px;writing-mode:lr-tb;text-anchor:start;fill:#000000;fill-opacity:1;stroke:none"
       transform="matrix(1.0839822,0,0,1.7488925,-113.53607,-340.71679)"
       aria-label="perj">
      <path
         id="path1795"
         style=""
         d="m 149.31507,229.9322 q 3.96006,0 6.3601,2.76004 2.44004,2.76005 2.44004,8.32014 0,5.48009 -2.44004,8.32014 -2.40004,2.84004 -6.4001,2.84004 -2.48004,0 -4.12007,-0.92001 -1.60003,-0.92002 -2.52004,-2.20004 h -0.24001 q 0.04,0.68001 0.12001,1.72003 0.12,1.04002 0.12,1.80003 v 8.80014 h -3.52006 v -31.0405 h 2.88005 l 0.48,2.92004 h 0.16001 q 0.96001,-1.40002 2.52004,-2.36004 1.56002,-0.96001 4.16007,-0.96001 z m -0.64001,2.96005 q -3.28006,0 -4.64008,1.84003 -1.36002,1.84003 -1.40002,5.60009 v 0.68001 q 0,3.96007 1.28002,6.1201 1.32002,2.12004 4.84008,2.12004 1.92003,0 3.20005,-1.04002 1.28002,-1.08002 1.88003,-2.96005 0.64001,-1.88003 0.64001,-4.28007 0,-3.68006 -1.44002,-5.8801 -1.40003,-2.20003 -4.36007,-2.20003 z" />
      <path
         id="path1797"
         style=""
         d="m 172.00481,229.9322 q 2.72005,0 4.72008,1.20002 2.00003,1.20002 3.04005,3.40005 1.08002,2.16004 1.08002,5.08009 v 2.12003 h -14.68024 q 0.08,3.64006 1.84003,5.56009 1.80003,1.88003 5.00008,1.88003 2.04003,0 3.60006,-0.36 1.60003,-0.40001 3.28005,-1.12002 v 3.08005 q -1.64002,0.72001 -3.24005,1.04002 -1.60003,0.36 -3.80006,0.36 -3.08005,0 -5.40009,-1.24002 -2.32004,-1.24002 -3.64006,-3.68006 -1.28002,-2.44004 -1.28002,-6.0401 0,-3.52005 1.16002,-6.04009 1.20002,-2.52005 3.32005,-3.88007 2.16004,-1.36002 5.00008,-1.36002 z m -0.04,2.88005 q -2.52004,0 -4.00006,1.64002 -1.44003,1.60003 -1.72003,4.48008 h 10.92018 q -0.04,-2.72005 -1.28002,-4.40008 -1.24002,-1.72002 -3.92007,-1.72002 z" />
      <path
         id="path1799"
         style=""
         d="m 196.30334,229.9322 q 0.60001,0 1.28002,0.08 0.68001,0.04 1.24002,0.16 l -0.44001,3.24006 q -0.52001,-0.12001 -1.16002,-0.20001 -0.64001,-0.08 -1.16002,-0.08 -1.64002,0 -3.08005,0.92002 -1.44002,0.88001 -2.32003,2.52004 -0.84002,1.60002 -0.84002,3.76006 v 11.44019 h -3.52006 v -21.44035 h 2.88005 l 0.40001,3.92006 h 0.16 q 1.00002,-1.76003 2.64004,-3.04005 1.68003,-1.28002 3.92007,-1.28002 z" />
      <path
         id="path1801"
         style=""
         d="m 202.50782,224.53211 q 0,-1.16002 0.6,-1.68003 0.60001,-0.56001 1.48003,-0.56001 0.80001,0 1.40002,0.56001 0.64001,0.52001 0.64001,1.68003 0,1.16002 -0.64001,1.72003 -0.60001,0.52001 -1.40002,0.52001 -0.88002,0 -1.48003,-0.52001 -0.6,-0.56001 -0.6,-1.72003 z m -2.24004,36.8406 q -1.04002,0 -1.80003,-0.16 -0.76001,-0.12 -1.28002,-0.32 v -2.84005 q 0.60001,0.2 1.24002,0.28001 0.64001,0.12 1.40002,0.12 1.28002,0 2.12004,-0.72001 0.84001,-0.68002 0.84001,-2.64005 v -24.7604 h 3.52006 v 24.6404 q 0,3.00005 -1.44003,4.68008 -1.44002,1.72002 -4.60007,1.72002 z" />
    </g>
    <path
       id="path1049-0-9"
       d="m 92.604167,106.5 c -0.256413,20.79279 -0.256413,20.79279 -0.256413,20.79279 l 8.461746,6.10223 0.25642,7.45828 v 0 0"
       style="fill:none;stroke:#000000;stroke-width:3.09851742;stroke-linecap:butt;stroke-linejoin:miter;stroke-miterlimit:4;stroke-dasharray:none;stroke-opacity:1" />
    <ellipse
       transform="scale(-1,1)"
       ry="3.1559579"
       rx="3.3892109"
       cy="144.17203"
       cx="-101.38035"
       id="path1082-7"
       style="opacity:1;fill:#800080;fill-opacity:1;fill-rule:evenodd;stroke:#000000;stroke-width:2.21251273;stroke-miterlimit:4;stroke-dasharray:none;stroke-opacity:1" />
    <path
       id="path1285-0"
       d="m 113.77083,106.5 c 0,19.99523 0,19.99523 0,19.99523 l 9.6217,5.63502 -0.26727,10.36116 v 0 0"
       style="display:inline;fill:none;stroke:#000000;stroke-width:3.09837031;stroke-linecap:butt;stroke-linejoin:miter;stroke-miterlimit:4;stroke-dasharray:none;stroke-opacity:1" />
    <ellipse
       ry="3.1559579"
       rx="3.3892109"
       cy="145.89792"
       cx="123.13285"
       id="path1082-7-2"
       style="display:inline;opacity:1;fill:#ccff00;fill-opacity:1;fill-rule:evenodd;stroke:#000000;stroke-width:2.21251273;stroke-miterlimit:4;stroke-dasharray:none;stroke-opacity:1" />
    <path
       id="path1285-1"
       d="m 82.669151,106.56638 c 0,16.65402 0,16.65402 0,16.65402 l -9.644151,4.6934 0.267893,8.6298 v 0 0"
       style="display:inline;fill:none;stroke:#000000;stroke-width:2.83097172;stroke-linecap:butt;stroke-linejoin:miter;stroke-miterlimit:4;stroke-dasharray:none;stroke-opacity:1" />
    <path
       id="path1285-4-2"
       d="m 82.285417,123.9625 c 0,29.69213 0,29.69213 0,29.69213 l 8.995833,8.36777 -0.249886,15.38593 v 0 0"
       style="display:inline;fill:none;stroke:#000000;stroke-width:3.65077877;stroke-linecap:butt;stroke-linejoin:miter;stroke-miterlimit:4;stroke-dasharray:none;stroke-opacity:1" />
    <ellipse
       transform="scale(-1,1)"
       ry="3.2381685"
       rx="3.3769274"
       cy="139.687"
       cx="-73.563164"
       id="path1082-7-5"
       style="display:inline;opacity:1;fill:#0000ff;fill-opacity:1;fill-rule:evenodd;stroke:#000000;stroke-width:2.23707962;stroke-miterlimit:4;stroke-dasharray:none;stroke-opacity:1" />
    <path
       id="path1340"
       d="m 60.854167,106.5 c -0.267269,27.5197 0,27.5197 0,27.5197 l 0.534541,12.48793 6.949006,9.25031 -0.267269,11.33164 v 0"
       style="fill:none;stroke:#000000;stroke-width:3.49473929;stroke-linecap:butt;stroke-linejoin:miter;stroke-miterlimit:4;stroke-dasharray:none;stroke-opacity:1" />
    <ellipse
       transform="scale(-1,1)"
       ry="3.0852358"
       rx="3.5087757"
       cy="169.17091"
       cx="-67.535904"
       id="path1082-7-52"
       style="display:inline;opacity:1;fill:#ffff00;fill-opacity:1;fill-rule:evenodd;stroke:#000000;stroke-width:2.22583461;stroke-miterlimit:4;stroke-dasharray:none;stroke-opacity:1" />
    <path
       id="path1285-4"
       d="m 44.979167,106.5 c 0,19.99523 0,19.99523 0,19.99523 l 9.621702,5.63502 -0.267269,10.36116 v 0 0"
       style="display:inline;fill:none;stroke:#000000;stroke-width:3.09837031;stroke-linecap:butt;stroke-linejoin:miter;stroke-miterlimit:4;stroke-dasharray:none;stroke-opacity:1" />
    <ellipse
       transform="scale(-1,1)"
       ry="3.320555"
       rx="3.36482"
       cy="145.72336"
       cx="-54.073914"
       id="path1082-7-9"
       style="display:inline;opacity:1;fill:#008000;fill-opacity:1;fill-rule:evenodd;stroke:#000000;stroke-width:2.2612946;stroke-miterlimit:4;stroke-dasharray:none;stroke-opacity:1" />
    <path
       id="path1285"
       d="m 39.158333,112.85 c 0,19.99523 0,19.99523 0,19.99523 l -13.5938,5.63501 0.377605,10.36117 v 0 0"
       style="fill:none;stroke:#000000;stroke-width:3.68279719;stroke-linecap:butt;stroke-linejoin:miter;stroke-miterlimit:4;stroke-dasharray:none;stroke-opacity:1" />
    <ellipse
       transform="scale(-1,1)"
       ry="3.0739293"
       rx="3.4016764"
       cy="151.92958"
       cx="-25.79151"
       id="path1082-7-0"
       style="display:inline;opacity:1;fill:#d45500;fill-opacity:1;fill-rule:evenodd;stroke:#000000;stroke-width:2.18758178;stroke-miterlimit:4;stroke-dasharray:none;stroke-opacity:1" />
    <path
       id="path5147"
       d="m 113.77083,126.29427 v 7.19791 l -2.64583,1.79948 v 16.19531 0 0"
       style="fill:none;stroke:#000000;stroke-width:3.09837031;stroke-linecap:butt;stroke-linejoin:miter;stroke-miterlimit:4;stroke-dasharray:none;stroke-opacity:1" />
    <path
       id="path5151"
       d="m 39.422917,132.4802 c 0,10.79688 0,10.79688 0,10.79688 l 5.291666,7.19791 v 5.39844"
       style="fill:none;stroke:#000000;stroke-width:3.09837031;stroke-linecap:butt;stroke-linejoin:miter;stroke-miterlimit:4;stroke-dasharray:none;stroke-opacity:1" />
    <ellipse
       ry="3.0739293"
       rx="3.4016764"
       cy="153.77254"
       cx="110.65963"
       id="path1082-7-2-2"
       style="display:inline;opacity:1;fill:#ff7f2a;fill-opacity:1;fill-rule:evenodd;stroke:#000000;stroke-width:2.18758178;stroke-miterlimit:4;stroke-dasharray:none;stroke-opacity:1" />
    <ellipse
       ry="3.1559579"
       rx="3.3892109"
       cy="159.26547"
       cx="44.536728"
       id="path1082-7-2-2-8"
       style="display:inline;opacity:1;fill:#37c8ab;fill-opacity:1;fill-rule:evenodd;stroke:#000000;stroke-width:2.21251273;stroke-miterlimit:4;stroke-dasharray:none;stroke-opacity:1" />
    <ellipse
       transform="scale(-1,1)"
       ry="3.2381687"
       rx="3.3769274"
       cy="180.41528"
       cx="-90.404785"
       id="path1082-7-5-3"
       style="display:inline;opacity:1;fill:#800000;fill-opacity:1;fill-rule:evenodd;stroke:#000000;stroke-width:2.23707962;stroke-miterlimit:4;stroke-dasharray:none;stroke-opacity:1" />
    <ellipse
       transform="scale(-1,1)"
       ry="3.2381687"
       rx="3.3769274"
       cy="52.0158"
       cx="-107.94383"
       id="path1082-7-5-3-8"
       style="display:inline;opacity:1;fill:#ff0000;fill-opacity:1;fill-rule:evenodd;stroke:#000000;stroke-width:2.23707962;stroke-miterlimit:4;stroke-dasharray:none;stroke-opacity:1" />
  </g>
  <g
     transform="translate(-21.296042,-47.659092)"
     style="display:inline"
     id="layer3" />
</svg>
